<svg width="19" height="19" viewBox="0 0 19 19" fill="none" xmlns="http://www.w3.org/2000/svg">
<path d="M0 15.2495V18.9995H3.75L14.81 7.93951L11.06 4.18951L0 15.2495ZM17.71 5.03951C17.8027 4.947 17.8762 4.83711 17.9264 4.71614C17.9766 4.59517 18.0024 4.46548 18.0024 4.33451C18.0024 4.20355 17.9766 4.07386 17.9264 3.95289C17.8762 3.83192 17.8027 3.72203 17.71 3.62951L15.37 1.28951C15.2775 1.19681 15.1676 1.12326 15.0466 1.07308C14.9257 1.0229 14.796 0.99707 14.665 0.99707C14.534 0.99707 14.4043 1.0229 14.2834 1.07308C14.1624 1.12326 14.0525 1.19681 13.96 1.28951L12.13 3.11951L15.88 6.86951L17.71 5.03951Z" fill="#3182CE"/>
</svg>
