<svg width="22" height="25" viewBox="0 0 22 25" fill="none" xmlns="http://www.w3.org/2000/svg">
<path d="M10.8746 0.5C12.1601 0.5 20.6246 5.387 21.2651 6.5C21.9094 7.613 21.9094 17.387 21.2651 18.5C20.6209 19.613 12.1594 24.5 10.8746 24.5C9.58913 24.5 1.12462 19.613 0.480375 18.5C-0.160125 17.387 -0.160125 7.613 0.480375 6.5C1.12462 5.387 9.58988 0.5 10.8746 0.5ZM13.1719 7.301C13.1377 7.3005 13.1037 7.30681 13.072 7.31955C13.0403 7.33229 13.0114 7.35122 12.987 7.37523C12.9627 7.39923 12.9433 7.42785 12.9301 7.45939C12.9169 7.49094 12.9101 7.5248 12.9101 7.559V11.4342H8.83988V7.40675H9.53888C9.57255 7.40665 9.60588 7.39989 9.63693 7.38684C9.66798 7.37379 9.69613 7.35473 9.71977 7.33074C9.74341 7.30675 9.76206 7.27832 9.77465 7.24708C9.78724 7.21585 9.79352 7.18243 9.79313 7.14875C9.79301 7.10504 9.78188 7.06207 9.76078 7.0238C9.73968 6.98552 9.70927 6.95318 9.67238 6.92975L8.09813 5.42225C8.07104 5.38813 8.03661 5.36057 7.99739 5.34161C7.95817 5.32265 7.91518 5.31279 7.87163 5.31275C7.83132 5.3133 7.79168 5.32312 7.75578 5.34146C7.71988 5.3598 7.68869 5.38616 7.66463 5.4185L5.98462 6.9305C5.93642 6.95983 5.89919 7.00419 5.87868 7.05676C5.85817 7.10933 5.85551 7.16718 5.87111 7.22141C5.88671 7.27564 5.91971 7.32323 5.96503 7.35686C6.01034 7.39048 6.06545 7.40828 6.12188 7.4075H6.82538L6.83288 17.4425C6.83288 17.5872 6.94238 17.7005 7.08712 17.7005H8.57963C8.61353 17.7006 8.64713 17.694 8.67847 17.6811C8.70982 17.6681 8.7383 17.6491 8.76228 17.6252C8.78626 17.6012 8.80526 17.5727 8.81819 17.5413C8.83112 17.51 8.83772 17.4764 8.83763 17.4425V13.4382H12.9116V17.5903H12.2126C12.1562 17.5895 12.1011 17.6073 12.0558 17.6409C12.0105 17.6745 11.9775 17.7221 11.9619 17.7763C11.9463 17.8306 11.9489 17.8884 11.9694 17.941C11.9899 17.9936 12.0272 18.0379 12.0754 18.0672L13.6534 19.5793C13.6961 19.6415 13.7944 19.6887 13.8799 19.6887C13.9654 19.6887 14.0359 19.6415 14.0869 19.5793L15.7669 18.0672C15.804 18.044 15.8345 18.0117 15.8557 17.9734C15.8768 17.9351 15.8878 17.892 15.8876 17.8483C15.887 17.78 15.8597 17.7147 15.8114 17.6665C15.7632 17.6182 15.6979 17.5908 15.6296 17.5903H14.9261L14.9186 7.559C14.9195 7.52501 14.9136 7.49119 14.9013 7.45952C14.8889 7.42784 14.8703 7.39896 14.8466 7.37458C14.8229 7.35019 14.7946 7.33078 14.7633 7.3175C14.732 7.30422 14.6984 7.29734 14.6644 7.29725H13.1719V7.301Z" fill="#1A365D"/>
</svg>
