<svg width="24" height="22" viewBox="0 0 24 22" fill="none" xmlns="http://www.w3.org/2000/svg">
<g filter="url(#filter0_d_3037_3419)">
<path fill-rule="evenodd" clip-rule="evenodd" d="M11.063 0.469128C11.309 0.272375 11.6108 0.158086 11.9254 0.14247C12.2401 0.126854 12.5517 0.210704 12.816 0.382128L12.937 0.469128L17.249 3.91913C17.4594 4.08728 17.6336 4.29618 17.7613 4.53332C17.889 4.77045 17.9675 5.03093 17.992 5.29913L18 5.48013V17.0001H19V8.50013C19 8.3831 19.041 8.26977 19.1159 8.17987C19.1908 8.08997 19.2949 8.02919 19.41 8.00813L19.5 8.00013H20C20.5046 7.99997 20.9906 8.19053 21.3605 8.53362C21.7305 8.87671 21.9572 9.34697 21.995 9.85013L22 10.0001V17.9001C21.9999 18.171 21.8998 18.4323 21.719 18.634C21.5382 18.8357 21.2893 18.9636 21.02 18.9931L20.9 19.0001H3.1C2.82894 19.0003 2.56738 18.9003 2.36548 18.7195C2.16358 18.5386 2.03557 18.2896 2.006 18.0201L2 17.9001V10.0001C1.99984 9.49555 2.19041 9.00956 2.5335 8.63958C2.87659 8.2696 3.34684 8.04297 3.85 8.00513L4 8.00013H4.5C4.61703 8.00009 4.73036 8.0411 4.82026 8.11602C4.91016 8.19094 4.97094 8.29501 4.992 8.41013L5 8.50013V17.0001H6V5.48013C5.99998 5.21081 6.05436 4.94427 6.15987 4.69648C6.26537 4.44869 6.41984 4.22476 6.614 4.03813L6.751 3.91813L11.063 0.468128V0.469128ZM12 6.99913C11.4696 6.99913 10.9609 7.20984 10.5858 7.58491C10.2107 7.95999 10 8.46869 10 8.99913C10 9.52956 10.2107 10.0383 10.5858 10.4133C10.9609 10.7884 11.4696 10.9991 12 10.9991C12.5304 10.9991 13.0391 10.7884 13.4142 10.4133C13.7893 10.0383 14 9.52956 14 8.99913C14 8.46869 13.7893 7.95999 13.4142 7.58491C13.0391 7.20984 12.5304 6.99913 12 6.99913Z" fill="#1A365D"/>
</g>
<defs>
<filter id="filter0_d_3037_3419" x="-2" y="0.140625" width="28" height="26.8594" filterUnits="userSpaceOnUse" color-interpolation-filters="sRGB">
<feFlood flood-opacity="0" result="BackgroundImageFix"/>
<feColorMatrix in="SourceAlpha" type="matrix" values="0 0 0 0 0 0 0 0 0 0 0 0 0 0 0 0 0 0 127 0" result="hardAlpha"/>
<feOffset dy="4"/>
<feGaussianBlur stdDeviation="2"/>
<feComposite in2="hardAlpha" operator="out"/>
<feColorMatrix type="matrix" values="0 0 0 0 0 0 0 0 0 0 0 0 0 0 0 0 0 0 0.25 0"/>
<feBlend mode="normal" in2="BackgroundImageFix" result="effect1_dropShadow_3037_3419"/>
<feBlend mode="normal" in="SourceGraphic" in2="effect1_dropShadow_3037_3419" result="shape"/>
</filter>
</defs>
</svg>
