<svg width="18" height="16" viewBox="0 0 18 16" fill="none" xmlns="http://www.w3.org/2000/svg">
<path fill-rule="evenodd" clip-rule="evenodd" d="M15.739 0.336907C16.1165 0.486679 16.5 0.864999 16.5 1.42162V6.26521C16.5539 6.26524 16.6087 6.27231 16.6633 6.28707L16.5 6.89037C16.6633 6.28707 16.663 6.28698 16.6633 6.28707L16.6658 6.28776L16.6686 6.28854L16.675 6.29035L16.6907 6.29503C16.7024 6.29863 16.7166 6.30324 16.7331 6.30898C16.7658 6.32042 16.8079 6.33661 16.8563 6.35863C16.9519 6.40206 17.0797 6.47169 17.2096 6.57859C17.4824 6.80305 17.75 7.1846 17.75 7.74974C17.75 8.31489 17.4824 8.69643 17.2096 8.92089C17.0797 9.02779 16.9519 9.09742 16.8563 9.14085C16.8079 9.16287 16.7658 9.17906 16.7331 9.1905C16.7166 9.19624 16.7024 9.20085 16.6907 9.20445L16.675 9.20913L16.6686 9.21094L16.6658 9.21172L16.6645 9.21208C16.6642 9.21216 16.6633 9.21241 16.505 8.62755L16.6633 9.21241C16.6087 9.22717 16.5539 9.23424 16.5 9.23427V14.0935C16.5 14.6803 16.0717 15.0383 15.7076 15.1709C15.3767 15.2913 14.7992 15.3225 14.4441 14.8642L14.4403 14.8595L14.4144 14.8279C14.3909 14.7995 14.3553 14.7567 14.3083 14.7017C14.2143 14.5917 14.0752 14.4328 13.8981 14.2415C13.543 13.8579 13.0388 13.3479 12.4411 12.8398C11.2112 11.794 9.72195 10.8747 8.375 10.8747H2.125C1.79348 10.8747 1.47554 10.743 1.24112 10.5086C1.0067 10.2742 0.875 9.95626 0.875 9.62474V9.32862C0.820748 9.28031 0.764733 9.22386 0.709431 9.15819C0.453582 8.85436 0.25 8.3974 0.25 7.74974C0.25 7.10209 0.453582 6.64512 0.709431 6.3413C0.764733 6.27562 0.820748 6.21917 0.875 6.17086V5.87474C0.875 5.54322 1.0067 5.22528 1.24112 4.99086C1.47554 4.75644 1.79348 4.62474 2.125 4.62474H8.375C9.72287 4.62474 11.2125 3.70884 12.4421 2.66768C13.0398 2.16165 13.5439 1.65382 13.899 1.27189C14.0761 1.08134 14.2151 0.923157 14.3091 0.813583C14.3561 0.758821 14.3918 0.716275 14.4152 0.687983L14.4411 0.656515L14.4465 0.649941C14.807 0.19337 15.3697 0.190382 15.739 0.336907ZM2.75 5.87474H2.125V6.48515C2.12523 6.49484 2.12523 6.5045 2.125 6.51415V8.98534C2.12523 8.99498 2.12523 9.00465 2.125 9.01433V9.62474H2.75V5.87474ZM4 9.62474V5.87474H8.375V9.62474H4ZM9.625 9.7983C10.9994 10.1676 12.2836 11.065 13.2508 11.8875C13.8963 12.4362 14.4366 12.9832 14.8154 13.3923C14.9998 13.5916 15.1469 13.7591 15.25 13.8796V1.63663C15.1468 1.75671 14.9995 1.92396 14.8145 2.12295C14.4357 2.53043 13.8953 3.07514 13.2499 3.62164C12.2825 4.44072 10.9987 5.33403 9.625 5.70182V9.7983ZM15.4222 1.43107C15.4221 1.43115 15.4222 1.431 15.4222 1.43107L14.9377 1.04164C15.2808 1.31742 15.3812 1.39801 15.4104 1.42162C15.4198 1.42925 15.4218 1.43069 15.4222 1.43107ZM15.4227 14.0868C15.4226 14.0867 15.4228 14.0869 15.4227 14.0868L14.9352 14.4775C15.2968 14.1879 15.3907 14.113 15.4148 14.0935C15.4209 14.0886 15.4222 14.0872 15.4227 14.0868Z" fill="#787878"/>
</svg>
