<svg width="21" height="21" viewBox="0 0 21 21" fill="none" xmlns="http://www.w3.org/2000/svg">
<path d="M7.75199 3.8418C7.85543 3.54922 8.04707 3.29593 8.3005 3.11683C8.55393 2.93772 8.85667 2.84163 9.16699 2.8418H12.167C12.4773 2.84163 12.7801 2.93772 13.0335 3.11683C13.2869 3.29593 13.4785 3.54922 13.582 3.8418H15.167C15.5648 3.8418 15.9463 3.99983 16.2277 4.28114C16.509 4.56244 16.667 4.94397 16.667 5.3418V11.2188C16.3915 10.9741 16.0354 10.8399 15.667 10.8418V5.3418C15.667 5.20919 15.6143 5.08201 15.5205 4.98824C15.4268 4.89448 15.2996 4.8418 15.167 4.8418H13.582C13.4785 5.13438 13.2869 5.38767 13.0335 5.56677C12.7801 5.74587 12.4773 5.84196 12.167 5.8418H9.16699C8.85667 5.84196 8.55393 5.74587 8.3005 5.56677C8.04707 5.38767 7.85543 5.13438 7.75199 4.8418H6.16699C6.03438 4.8418 5.90721 4.89448 5.81344 4.98824C5.71967 5.08201 5.66699 5.20919 5.66699 5.3418V17.3418C5.66699 17.4744 5.71967 17.6016 5.81344 17.6954C5.90721 17.7891 6.03438 17.8418 6.16699 17.8418H10.124L10.528 18.3138C10.6688 18.4781 10.8435 18.6101 11.0401 18.7005C11.2367 18.791 11.4506 18.8378 11.667 18.8378V18.8418H6.16699C5.76917 18.8418 5.38764 18.6838 5.10633 18.4025C4.82503 18.1212 4.66699 17.7396 4.66699 17.3418V5.3418C4.66699 4.94397 4.82503 4.56244 5.10633 4.28114C5.38764 3.99983 5.76917 3.8418 6.16699 3.8418H7.75199ZM9.16699 3.8418C9.03438 3.8418 8.90721 3.89448 8.81344 3.98824C8.71967 4.08201 8.66699 4.20919 8.66699 4.3418C8.66699 4.47441 8.71967 4.60158 8.81344 4.69535C8.90721 4.78912 9.03438 4.8418 9.16699 4.8418H12.167C12.2996 4.8418 12.4268 4.78912 12.5205 4.69535C12.6143 4.60158 12.667 4.47441 12.667 4.3418C12.667 4.20919 12.6143 4.08201 12.5205 3.98824C12.4268 3.89448 12.2996 3.8418 12.167 3.8418H9.16699ZM16.153 12.4788C16.171 12.4156 16.1764 12.3495 16.1688 12.2843C16.1613 12.2191 16.1409 12.1559 16.109 12.0986C16.077 12.0412 16.0341 11.9906 15.9826 11.9498C15.9312 11.909 15.8722 11.8788 15.809 11.8608C15.7458 11.8428 15.6797 11.8374 15.6145 11.845C15.5493 11.8525 15.4861 11.8729 15.4287 11.9048C15.3714 11.9367 15.3208 11.9797 15.28 12.0312C15.2392 12.0826 15.209 12.1416 15.191 12.2048L13.191 19.2048C13.173 19.268 13.1676 19.3341 13.1752 19.3993C13.1827 19.4645 13.2031 19.5277 13.235 19.585C13.2995 19.7009 13.4074 19.7865 13.535 19.8228C13.6626 19.8591 13.7993 19.8433 13.9152 19.7788C14.0311 19.7143 14.1167 19.6064 14.153 19.4788L16.153 12.4788ZM12.047 14.1628C12.0897 14.1129 12.1221 14.0551 12.1424 13.9926C12.1628 13.9302 12.1706 13.8644 12.1655 13.7989C12.1604 13.7334 12.1424 13.6696 12.1127 13.6111C12.0829 13.5526 12.0419 13.5005 11.992 13.4578C11.9421 13.4151 11.8843 13.3827 11.8218 13.3624C11.7594 13.342 11.6936 13.3342 11.6281 13.3393C11.5626 13.3444 11.4988 13.3623 11.4403 13.3921C11.3818 13.4219 11.3297 13.4629 11.287 13.5128L9.78699 15.2628C9.70953 15.3534 9.66696 15.4686 9.66696 15.5878C9.66696 15.707 9.70953 15.8222 9.78699 15.9128L11.287 17.6628C11.3297 17.7127 11.3818 17.7537 11.4403 17.7835C11.4988 17.8132 11.5626 17.8312 11.6281 17.8363C11.6936 17.8414 11.7594 17.8336 11.8218 17.8132C11.8843 17.7929 11.9421 17.7605 11.992 17.7178C12.0419 17.6751 12.0829 17.623 12.1127 17.5645C12.1424 17.506 12.1604 17.4422 12.1655 17.3767C12.1706 17.3112 12.1628 17.2454 12.1424 17.183C12.1221 17.1205 12.0897 17.0627 12.047 17.0128L10.825 15.5878L12.047 14.1628ZM17.342 17.7168C17.2921 17.6741 17.2511 17.622 17.2213 17.5635C17.1915 17.505 17.1736 17.4412 17.1685 17.3757C17.1634 17.3102 17.1712 17.2444 17.1915 17.182C17.2119 17.1195 17.2443 17.0617 17.287 17.0118L18.508 15.5878L17.288 14.1628C17.2076 14.0615 17.1696 13.9329 17.182 13.8042C17.1945 13.6754 17.2563 13.5565 17.3545 13.4723C17.4528 13.3882 17.5798 13.3454 17.7089 13.353C17.838 13.3605 17.9592 13.4178 18.047 13.5128L19.547 15.2628C19.6245 15.3534 19.667 15.4686 19.667 15.5878C19.667 15.707 19.6245 15.8222 19.547 15.9128L18.047 17.6628C17.9607 17.7634 17.8379 17.8257 17.7057 17.8358C17.5735 17.8459 17.4426 17.8031 17.342 17.7168Z" fill="#787878"/>
</svg>
