<svg width="15" height="17" viewBox="0 0 15 17" fill="none" xmlns="http://www.w3.org/2000/svg">
<path d="M3.085 1C3.18844 0.707422 3.38008 0.454129 3.63351 0.275028C3.88694 0.0959278 4.18967 -0.00016248 4.5 2.06237e-07H7.5C7.81033 -0.00016248 8.11306 0.0959278 8.36649 0.275028C8.61992 0.454129 8.81156 0.707422 8.915 1H10.5C10.8978 1 11.2794 1.15804 11.5607 1.43934C11.842 1.72064 12 2.10218 12 2.5V8.377C11.7246 8.13233 11.3684 7.99807 11 8V2.5C11 2.36739 10.9473 2.24022 10.8536 2.14645C10.7598 2.05268 10.6326 2 10.5 2H8.915C8.81156 2.29258 8.61992 2.54587 8.36649 2.72497C8.11306 2.90407 7.81033 3.00016 7.5 3H4.5C4.18967 3.00016 3.88694 2.90407 3.63351 2.72497C3.38008 2.54587 3.18844 2.29258 3.085 2H1.5C1.36739 2 1.24021 2.05268 1.14645 2.14645C1.05268 2.24022 1 2.36739 1 2.5V14.5C1 14.6326 1.05268 14.7598 1.14645 14.8536C1.24021 14.9473 1.36739 15 1.5 15H5.457L5.861 15.472C6.00181 15.6363 6.17652 15.7683 6.37313 15.8587C6.56973 15.9492 6.78358 15.996 7 15.996V16H1.5C1.10218 16 0.720644 15.842 0.43934 15.5607C0.158035 15.2794 0 14.8978 0 14.5V2.5C0 2.10218 0.158035 1.72064 0.43934 1.43934C0.720644 1.15804 1.10218 1 1.5 1H3.085ZM4.5 1C4.36739 1 4.24021 1.05268 4.14645 1.14645C4.05268 1.24022 4 1.36739 4 1.5C4 1.63261 4.05268 1.75979 4.14645 1.85355C4.24021 1.94732 4.36739 2 4.5 2H7.5C7.63261 2 7.75979 1.94732 7.85355 1.85355C7.94732 1.75979 8 1.63261 8 1.5C8 1.36739 7.94732 1.24022 7.85355 1.14645C7.75979 1.05268 7.63261 1 7.5 1H4.5ZM11.486 9.637C11.504 9.57383 11.5094 9.50774 11.5018 9.4425C11.4943 9.37726 11.4739 9.31414 11.442 9.25675C11.41 9.19937 11.3671 9.14884 11.3156 9.10804C11.2642 9.06725 11.2052 9.03699 11.142 9.019C11.0788 9.00101 11.0127 8.99564 10.9475 9.00319C10.8823 9.01074 10.8191 9.03106 10.7618 9.06301C10.7044 9.09495 10.6538 9.13789 10.613 9.18936C10.5722 9.24083 10.542 9.29983 10.524 9.363L8.524 16.363C8.50601 16.4262 8.50064 16.4923 8.50819 16.5575C8.51574 16.6227 8.53606 16.6859 8.56801 16.7432C8.63252 16.8591 8.74043 16.9447 8.868 16.981C8.99557 17.0173 9.13235 17.0015 9.24824 16.937C9.36414 16.8725 9.44967 16.7646 9.486 16.637L11.486 9.637ZM7.38 11.321C7.42268 11.2711 7.45511 11.2133 7.47545 11.1508C7.49578 11.0884 7.50362 11.0226 7.49851 10.9571C7.4934 10.8916 7.47545 10.8278 7.44568 10.7693C7.41591 10.7108 7.3749 10.6587 7.325 10.616C7.2751 10.5733 7.21728 10.5409 7.15484 10.5206C7.0924 10.5002 7.02657 10.4924 6.96111 10.4975C6.89564 10.5026 6.83183 10.5205 6.7733 10.5503C6.71477 10.5801 6.66268 10.6211 6.62 10.671L5.12 12.421C5.04253 12.5116 4.99997 12.6268 4.99997 12.746C4.99997 12.8652 5.04253 12.9804 5.12 13.071L6.62 14.821C6.66268 14.8709 6.71477 14.9119 6.7733 14.9417C6.83183 14.9715 6.89564 14.9894 6.96111 14.9945C7.02657 14.9996 7.0924 14.9918 7.15484 14.9714C7.21728 14.9511 7.2751 14.9187 7.325 14.876C7.3749 14.8333 7.41591 14.7812 7.44568 14.7227C7.47545 14.6642 7.4934 14.6004 7.49851 14.5349C7.50362 14.4694 7.49578 14.4036 7.47545 14.3412C7.45511 14.2787 7.42268 14.2209 7.38 14.171L6.158 12.746L7.38 11.321ZM12.675 14.875C12.6251 14.8323 12.5841 14.7802 12.5543 14.7217C12.5245 14.6632 12.5066 14.5994 12.5015 14.5339C12.4964 14.4684 12.5042 14.4026 12.5245 14.3402C12.5449 14.2777 12.5773 14.2199 12.62 14.17L13.841 12.746L12.621 11.321C12.5406 11.2197 12.5027 11.0911 12.5151 10.9624C12.5275 10.8336 12.5893 10.7147 12.6875 10.6305C12.7858 10.5464 12.9128 10.5036 13.0419 10.5112C13.171 10.5187 13.2922 10.576 13.38 10.671L14.88 12.421C14.9575 12.5116 15 12.6268 15 12.746C15 12.8652 14.9575 12.9804 14.88 13.071L13.38 14.821C13.2937 14.9216 13.1709 14.9839 13.0387 14.994C12.9065 15.0041 12.7757 14.9613 12.675 14.875Z" fill="#787878"/>
</svg>
