<svg width="20" height="21" viewBox="0 0 20 21" fill="none" xmlns="http://www.w3.org/2000/svg">
<g clip-path="url(#clip0_2627_3002)">
<path d="M18.1776 11.5195C18.3633 11.5195 18.5413 11.5932 18.6726 11.7245C18.8039 11.8558 18.8776 12.0338 18.8776 12.2195V18.0935C18.9046 18.9055 18.8066 19.4385 18.4436 19.7735C18.1056 20.0845 17.6156 20.1735 16.9806 20.1395H3.14365C2.49965 20.1075 1.99965 19.8465 1.76765 19.3195C1.61365 18.9725 1.54165 18.5625 1.54165 18.0915V12.2185C1.54165 12.0328 1.6154 11.8548 1.74667 11.7235C1.87795 11.5922 2.056 11.5185 2.24165 11.5185C2.4273 11.5185 2.60535 11.5922 2.73662 11.7235C2.8679 11.8548 2.94165 12.0328 2.94165 12.2185V18.0915C2.94165 18.3235 2.96765 18.5115 3.01165 18.6535L3.04765 18.7515L3.04465 18.7415C3.04565 18.7285 3.07465 18.7335 3.17665 18.7395H17.0166C17.2616 18.7535 17.4176 18.7395 17.4726 18.7385L17.4766 18.7375C17.4636 18.6845 17.4886 18.4675 17.4766 18.1155V12.2185C17.4766 12.1265 17.4948 12.0354 17.53 11.9504C17.5653 11.8654 17.6169 11.7882 17.682 11.7232C17.7471 11.6581 17.8244 11.6066 17.9095 11.5715C17.9945 11.5364 18.0856 11.5184 18.1776 11.5185V11.5195ZM10.4336 0.146484C10.6976 0.146484 10.9336 0.250484 11.1556 0.443484L19.7806 8.58248C19.8487 8.64534 19.9035 8.72106 19.9421 8.80527C19.9806 8.88949 20.0021 8.98051 20.0052 9.07307C20.0083 9.16563 19.993 9.25789 19.9602 9.3445C19.9274 9.43111 19.8778 9.51035 19.8141 9.57763C19.7505 9.64491 19.6741 9.6989 19.5895 9.73645C19.5048 9.77401 19.4135 9.7944 19.3209 9.79643C19.2284 9.79846 19.1363 9.7821 19.0501 9.74829C18.9638 9.71449 18.8852 9.66391 18.8186 9.59948L10.4016 1.65548L1.15765 9.62048C1.01708 9.74182 0.834076 9.80235 0.648884 9.78875C0.463691 9.77516 0.291485 9.68855 0.170149 9.54798C0.0488123 9.40742 -0.0117155 9.22441 0.00188086 9.03922C0.0154772 8.85403 0.102084 8.68182 0.242649 8.56048L9.68865 0.423484L9.77465 0.359484C9.98865 0.225484 10.2026 0.147484 10.4346 0.147484L10.4336 0.146484Z" fill="#5956E9"/>
</g>
<defs>
<clipPath id="clip0_2627_3002">
<rect width="20" height="20" fill="white" transform="translate(0 0.146484)"/>
</clipPath>
</defs>
</svg>
