<svg width="24" height="24" viewBox="0 0 24 24" fill="none" xmlns="http://www.w3.org/2000/svg">
<path fill-rule="evenodd" clip-rule="evenodd" d="M21 21.003C21 21.4 20.8423 21.7808 20.5615 22.0615C20.2808 22.3423 19.9 22.5 19.503 22.5H4.5015C4.30427 22.5002 4.10893 22.4615 3.92667 22.3861C3.74441 22.3107 3.57881 22.2001 3.43934 22.0607C3.29987 21.9212 3.18928 21.7556 3.11389 21.5733C3.03851 21.3911 2.9998 21.1957 3 20.9985V19.5C3 15.5505 9 13.5 9 13.5C9 13.5 9.3435 12.8865 9 12C7.7385 11.07 7.584 9.615 7.5 6C7.7595 2.3805 10.3005 1.5 12 1.5C13.6995 1.5 16.2405 2.379 16.5 6C16.416 9.615 16.2615 11.07 15 12C14.6565 12.885 15 13.5 15 13.5C15 13.5 21 15.5505 21 19.5V21.003Z" fill="#787878"/>
</svg>
