<svg width="232" height="117" viewBox="0 0 232 117" fill="none" xmlns="http://www.w3.org/2000/svg">
<path d="M4.41523 112L0.835234 98H2.27523L5.23523 109.59L8.18524 98H9.42523L12.3852 109.59L15.3352 98H16.7752L13.2152 112H11.5552L8.80523 101.25L6.05523 112H4.41523ZM21.8637 112.26C20.9437 112.26 20.1037 112.023 19.3437 111.55C18.5903 111.077 17.987 110.443 17.5337 109.65C17.087 108.85 16.8637 107.967 16.8637 107C16.8637 106.267 16.9937 105.583 17.2537 104.95C17.5137 104.31 17.8703 103.75 18.3237 103.27C18.7837 102.783 19.317 102.403 19.9237 102.13C20.5303 101.857 21.177 101.72 21.8637 101.72C22.6037 101.72 23.2837 101.867 23.9037 102.16C24.5303 102.453 25.067 102.863 25.5137 103.39C25.967 103.917 26.307 104.533 26.5337 105.24C26.767 105.947 26.8637 106.71 26.8237 107.53H18.3437C18.4237 108.163 18.6237 108.73 18.9437 109.23C19.2703 109.73 19.6837 110.127 20.1837 110.42C20.6903 110.707 21.2503 110.853 21.8637 110.86C22.5303 110.86 23.1303 110.687 23.6637 110.34C24.2037 109.993 24.637 109.517 24.9637 108.91L26.3837 109.24C25.9837 110.127 25.3803 110.853 24.5737 111.42C23.767 111.98 22.8637 112.26 21.8637 112.26ZM18.3037 106.4H25.4137C25.367 105.78 25.177 105.213 24.8437 104.7C24.517 104.18 24.0937 103.767 23.5737 103.46C23.0537 103.147 22.4837 102.99 21.8637 102.99C21.2437 102.99 20.677 103.143 20.1637 103.45C19.6503 103.75 19.2303 104.16 18.9037 104.68C18.577 105.193 18.377 105.767 18.3037 106.4ZM28.4598 112V97H29.8598V112H28.4598ZM39.3302 109.49L40.5802 110.17C40.1269 110.803 39.5502 111.31 38.8502 111.69C38.1569 112.07 37.4036 112.26 36.5902 112.26C35.6702 112.26 34.8302 112.023 34.0702 111.55C33.3169 111.077 32.7136 110.443 32.2602 109.65C31.8136 108.85 31.5902 107.967 31.5902 107C31.5902 106.267 31.7202 105.583 31.9802 104.95C32.2402 104.31 32.5969 103.75 33.0502 103.27C33.5102 102.783 34.0436 102.403 34.6502 102.13C35.2569 101.857 35.9036 101.72 36.5902 101.72C37.4036 101.72 38.1569 101.91 38.8502 102.29C39.5502 102.67 40.1269 103.18 40.5802 103.82L39.3302 104.49C38.9836 104.05 38.5669 103.713 38.0802 103.48C37.5936 103.24 37.0969 103.12 36.5902 103.12C35.9169 103.12 35.3069 103.3 34.7602 103.66C34.2136 104.013 33.7802 104.483 33.4602 105.07C33.1469 105.657 32.9902 106.3 32.9902 107C32.9902 107.7 33.1502 108.343 33.4702 108.93C33.7969 109.517 34.2336 109.987 34.7802 110.34C35.3269 110.687 35.9302 110.86 36.5902 110.86C37.1369 110.86 37.6502 110.733 38.1302 110.48C38.6102 110.227 39.0102 109.897 39.3302 109.49ZM46.6488 112.26C45.7288 112.26 44.8888 112.023 44.1288 111.55C43.3755 111.077 42.7722 110.443 42.3188 109.65C41.8722 108.85 41.6488 107.967 41.6488 107C41.6488 106.267 41.7788 105.583 42.0388 104.95C42.2988 104.31 42.6555 103.75 43.1088 103.27C43.5688 102.783 44.1022 102.403 44.7088 102.13C45.3155 101.857 45.9622 101.72 46.6488 101.72C47.5688 101.72 48.4055 101.957 49.1588 102.43C49.9188 102.903 50.5222 103.54 50.9688 104.34C51.4222 105.14 51.6488 106.027 51.6488 107C51.6488 107.727 51.5188 108.407 51.2588 109.04C50.9988 109.673 50.6388 110.233 50.1788 110.72C49.7255 111.2 49.1955 111.577 48.5888 111.85C47.9888 112.123 47.3422 112.26 46.6488 112.26ZM46.6488 110.86C47.3288 110.86 47.9388 110.683 48.4788 110.33C49.0255 109.97 49.4555 109.497 49.7688 108.91C50.0888 108.323 50.2488 107.687 50.2488 107C50.2488 106.3 50.0888 105.657 49.7688 105.07C49.4488 104.477 49.0155 104.003 48.4688 103.65C47.9288 103.297 47.3222 103.12 46.6488 103.12C45.9688 103.12 45.3555 103.3 44.8088 103.66C44.2688 104.013 43.8388 104.483 43.5188 105.07C43.2055 105.657 43.0488 106.3 43.0488 107C43.0488 107.72 43.2122 108.373 43.5388 108.96C43.8655 109.54 44.3022 110.003 44.8488 110.35C45.3955 110.69 45.9955 110.86 46.6488 110.86ZM53.3426 112V102H54.7426V103.38C55.1026 102.873 55.5626 102.47 56.1226 102.17C56.6826 101.87 57.2959 101.72 57.9626 101.72C58.7159 101.72 59.4059 101.907 60.0326 102.28C60.6592 102.647 61.1492 103.137 61.5026 103.75C61.8559 103.137 62.3426 102.647 62.9626 102.28C63.5826 101.907 64.2692 101.72 65.0226 101.72C65.7759 101.72 66.4626 101.903 67.0826 102.27C67.7026 102.637 68.1959 103.13 68.5626 103.75C68.9292 104.37 69.1126 105.057 69.1126 105.81V112H67.7126V106.12C67.7126 105.587 67.5826 105.093 67.3226 104.64C67.0626 104.187 66.7126 103.823 66.2726 103.55C65.8392 103.27 65.3559 103.13 64.8226 103.13C64.2892 103.13 63.8026 103.26 63.3626 103.52C62.9292 103.773 62.5826 104.127 62.3226 104.58C62.0626 105.027 61.9326 105.54 61.9326 106.12V112H60.5326V106.12C60.5326 105.54 60.4026 105.027 60.1426 104.58C59.8826 104.127 59.5326 103.773 59.0926 103.52C58.6526 103.26 58.1659 103.13 57.6326 103.13C57.1059 103.13 56.6226 103.27 56.1826 103.55C55.7426 103.823 55.3926 104.187 55.1326 104.64C54.8726 105.093 54.7426 105.587 54.7426 106.12V112H53.3426ZM75.3207 112.26C74.4007 112.26 73.5607 112.023 72.8007 111.55C72.0474 111.077 71.444 110.443 70.9907 109.65C70.544 108.85 70.3207 107.967 70.3207 107C70.3207 106.267 70.4507 105.583 70.7107 104.95C70.9707 104.31 71.3274 103.75 71.7807 103.27C72.2407 102.783 72.774 102.403 73.3807 102.13C73.9874 101.857 74.634 101.72 75.3207 101.72C76.0607 101.72 76.7407 101.867 77.3607 102.16C77.9874 102.453 78.524 102.863 78.9707 103.39C79.424 103.917 79.764 104.533 79.9907 105.24C80.224 105.947 80.3207 106.71 80.2807 107.53H71.8007C71.8807 108.163 72.0807 108.73 72.4007 109.23C72.7274 109.73 73.1407 110.127 73.6407 110.42C74.1474 110.707 74.7074 110.853 75.3207 110.86C75.9874 110.86 76.5874 110.687 77.1207 110.34C77.6607 109.993 78.094 109.517 78.4207 108.91L79.8407 109.24C79.4407 110.127 78.8374 110.853 78.0307 111.42C77.224 111.98 76.3207 112.26 75.3207 112.26ZM71.7607 106.4H78.8707C78.824 105.78 78.634 105.213 78.3007 104.7C77.974 104.18 77.5507 103.767 77.0307 103.46C76.5107 103.147 75.9407 102.99 75.3207 102.99C74.7007 102.99 74.134 103.143 73.6207 103.45C73.1074 103.75 72.6874 104.16 72.3607 104.68C72.034 105.193 71.834 105.767 71.7607 106.4ZM86.8973 112V98H95.0873V99.4H88.2973V103.8H94.1273V105.2H88.2973V112H86.8973ZM95.7941 108.17V102H97.1941V107.89C97.1941 108.437 97.3275 108.933 97.5941 109.38C97.8608 109.827 98.2175 110.183 98.6641 110.45C99.1175 110.717 99.6141 110.85 100.154 110.85C100.701 110.85 101.194 110.717 101.634 110.45C102.081 110.183 102.437 109.827 102.704 109.38C102.971 108.933 103.104 108.437 103.104 107.89V102H104.504L104.514 112H103.114L103.104 110.6C102.751 111.107 102.291 111.51 101.724 111.81C101.164 112.11 100.551 112.26 99.8841 112.26C99.1308 112.26 98.4441 112.077 97.8241 111.71C97.2041 111.343 96.7108 110.85 96.3441 110.23C95.9775 109.61 95.7941 108.923 95.7941 108.17ZM111.617 103.4H109.227L109.217 112H107.817L107.827 103.4H106.017V102H107.827L107.817 98.86H109.217L109.227 102H111.617V103.4ZM113.001 108.17V102H114.401V107.89C114.401 108.437 114.535 108.933 114.801 109.38C115.068 109.827 115.425 110.183 115.871 110.45C116.325 110.717 116.821 110.85 117.361 110.85C117.908 110.85 118.401 110.717 118.841 110.45C119.288 110.183 119.645 109.827 119.911 109.38C120.178 108.933 120.311 108.437 120.311 107.89V102H121.711L121.721 112H120.321L120.311 110.6C119.958 111.107 119.498 111.51 118.931 111.81C118.371 112.11 117.758 112.26 117.091 112.26C116.338 112.26 115.651 112.077 115.031 111.71C114.411 111.343 113.918 110.85 113.551 110.23C113.185 109.61 113.001 108.923 113.001 108.17ZM123.714 112V102H125.114V103.38C125.467 102.873 125.927 102.47 126.494 102.17C127.06 101.87 127.677 101.72 128.344 101.72C128.73 101.72 129.104 101.77 129.464 101.87L128.894 103.26C128.614 103.173 128.34 103.13 128.074 103.13C127.534 103.13 127.037 103.263 126.584 103.53C126.137 103.797 125.78 104.153 125.514 104.6C125.247 105.047 125.114 105.543 125.114 106.09V112H123.714ZM134.598 112.26C133.678 112.26 132.838 112.023 132.078 111.55C131.325 111.077 130.721 110.443 130.268 109.65C129.821 108.85 129.598 107.967 129.598 107C129.598 106.267 129.728 105.583 129.988 104.95C130.248 104.31 130.605 103.75 131.058 103.27C131.518 102.783 132.051 102.403 132.658 102.13C133.265 101.857 133.911 101.72 134.598 101.72C135.338 101.72 136.018 101.867 136.638 102.16C137.265 102.453 137.801 102.863 138.248 103.39C138.701 103.917 139.041 104.533 139.268 105.24C139.501 105.947 139.598 106.71 139.558 107.53H131.078C131.158 108.163 131.358 108.73 131.678 109.23C132.005 109.73 132.418 110.127 132.918 110.42C133.425 110.707 133.985 110.853 134.598 110.86C135.265 110.86 135.865 110.687 136.398 110.34C136.938 109.993 137.371 109.517 137.698 108.91L139.118 109.24C138.718 110.127 138.115 110.853 137.308 111.42C136.501 111.98 135.598 112.26 134.598 112.26ZM131.038 106.4H138.148C138.101 105.78 137.911 105.213 137.578 104.7C137.251 104.18 136.828 103.767 136.308 103.46C135.788 103.147 135.218 102.99 134.598 102.99C133.978 102.99 133.411 103.143 132.898 103.45C132.385 103.75 131.965 104.16 131.638 104.68C131.311 105.193 131.111 105.767 131.038 106.4ZM150.865 98H153.295L158.385 112H156.185L155.215 109.34H148.945L147.985 112H145.775L150.865 98ZM149.715 107.26H154.445L152.075 100.76L149.715 107.26ZM159.993 112V110.15C160.467 109.757 161.01 109.3 161.623 108.78C162.237 108.253 162.86 107.697 163.493 107.11C164.127 106.517 164.71 105.927 165.243 105.34C165.777 104.747 166.207 104.187 166.533 103.66C166.867 103.127 167.033 102.663 167.033 102.27C167.033 101.823 166.923 101.417 166.703 101.05C166.49 100.677 166.2 100.38 165.833 100.16C165.467 99.9333 165.06 99.82 164.613 99.82C164.167 99.82 163.757 99.9333 163.383 100.16C163.017 100.38 162.72 100.677 162.493 101.05C162.273 101.417 162.163 101.823 162.163 102.27H160.083C160.083 101.423 160.29 100.66 160.703 99.98C161.123 99.2933 161.673 98.75 162.353 98.35C163.04 97.9433 163.793 97.74 164.613 97.74C165.44 97.74 166.193 97.9433 166.873 98.35C167.553 98.7567 168.097 99.3033 168.503 99.99C168.91 100.67 169.113 101.43 169.113 102.27C169.113 102.737 169.017 103.217 168.823 103.71C168.63 104.203 168.36 104.707 168.013 105.22C167.673 105.733 167.277 106.253 166.823 106.78C166.37 107.307 165.883 107.833 165.363 108.36C164.843 108.887 164.313 109.407 163.773 109.92H169.233V112H159.993ZM176.614 112.26C175.847 112.26 175.11 112.14 174.404 111.9C173.697 111.66 173.08 111.317 172.554 110.87C172.027 110.417 171.65 109.88 171.424 109.26L173.374 108.53C173.487 108.85 173.704 109.137 174.024 109.39C174.35 109.637 174.737 109.83 175.184 109.97C175.637 110.11 176.114 110.18 176.614 110.18C177.147 110.18 177.647 110.093 178.114 109.92C178.587 109.747 178.967 109.507 179.254 109.2C179.547 108.893 179.694 108.533 179.694 108.12C179.694 107.693 179.54 107.343 179.234 107.07C178.934 106.797 178.547 106.58 178.074 106.42C177.607 106.26 177.12 106.14 176.614 106.06C175.634 105.9 174.754 105.667 173.974 105.36C173.2 105.053 172.587 104.623 172.134 104.07C171.687 103.517 171.464 102.797 171.464 101.91C171.464 101.077 171.7 100.35 172.174 99.73C172.654 99.11 173.284 98.63 174.064 98.29C174.85 97.9433 175.7 97.77 176.614 97.77C177.367 97.77 178.094 97.89 178.794 98.13C179.5 98.3633 180.12 98.7067 180.654 99.16C181.194 99.6067 181.58 100.15 181.814 100.79L179.844 101.5C179.73 101.173 179.514 100.89 179.194 100.65C178.874 100.403 178.487 100.21 178.034 100.07C177.587 99.93 177.114 99.86 176.614 99.86C176.08 99.8533 175.58 99.94 175.114 100.12C174.654 100.293 174.277 100.533 173.984 100.84C173.69 101.147 173.544 101.503 173.544 101.91C173.544 102.41 173.68 102.79 173.954 103.05C174.227 103.31 174.594 103.503 175.054 103.63C175.52 103.75 176.04 103.86 176.614 103.96C177.534 104.107 178.384 104.35 179.164 104.69C179.95 105.03 180.58 105.483 181.054 106.05C181.534 106.61 181.774 107.3 181.774 108.12C181.774 108.947 181.534 109.673 181.054 110.3C180.58 110.92 179.95 111.403 179.164 111.75C178.384 112.09 177.534 112.26 176.614 112.26ZM188.216 112L183.136 98H185.336L189.516 109.53L193.716 98H195.916L190.836 112H188.216ZM197.034 102H199.114V112H197.034V102ZM198.094 100.55C197.774 100.55 197.507 100.447 197.294 100.24C197.081 100.033 196.974 99.7733 196.974 99.46C196.974 99.1533 197.081 98.8967 197.294 98.69C197.507 98.4767 197.771 98.37 198.084 98.37C198.391 98.37 198.651 98.4767 198.864 98.69C199.077 98.8967 199.184 99.1533 199.184 99.46C199.184 99.7733 199.077 100.033 198.864 100.24C198.657 100.447 198.401 100.55 198.094 100.55ZM209.111 102H211.191V112H209.101L209.021 110.55C208.728 111.063 208.331 111.477 207.831 111.79C207.331 112.103 206.741 112.26 206.061 112.26C205.328 112.26 204.638 112.123 203.991 111.85C203.344 111.57 202.774 111.183 202.281 110.69C201.794 110.197 201.414 109.63 201.141 108.99C200.868 108.343 200.731 107.65 200.731 106.91C200.731 106.197 200.864 105.527 201.131 104.9C201.398 104.267 201.768 103.713 202.241 103.24C202.714 102.767 203.261 102.397 203.881 102.13C204.508 101.857 205.178 101.72 205.891 101.72C206.618 101.72 207.258 101.887 207.811 102.22C208.371 102.547 208.834 102.967 209.201 103.48L209.111 102ZM206.011 110.25C206.598 110.25 207.111 110.107 207.551 109.82C207.991 109.527 208.331 109.133 208.571 108.64C208.818 108.147 208.941 107.6 208.941 107C208.941 106.393 208.818 105.843 208.571 105.35C208.324 104.857 207.981 104.467 207.541 104.18C207.108 103.887 206.598 103.74 206.011 103.74C205.431 103.74 204.901 103.887 204.421 104.18C203.941 104.473 203.561 104.867 203.281 105.36C203.001 105.853 202.861 106.4 202.861 107C202.861 107.607 203.004 108.157 203.291 108.65C203.584 109.137 203.968 109.527 204.441 109.82C204.921 110.107 205.444 110.25 206.011 110.25ZM222.186 105.73V112H220.106V106.24C220.106 105.793 219.996 105.387 219.776 105.02C219.563 104.653 219.273 104.363 218.906 104.15C218.546 103.93 218.14 103.82 217.686 103.82C217.246 103.82 216.843 103.93 216.476 104.15C216.11 104.363 215.816 104.653 215.596 105.02C215.376 105.387 215.266 105.793 215.266 106.24V112H213.186V102H215.266V103.06C215.613 102.647 216.04 102.32 216.546 102.08C217.053 101.84 217.6 101.72 218.186 101.72C218.926 101.72 219.6 101.9 220.206 102.26C220.813 102.62 221.293 103.103 221.646 103.71C222.006 104.317 222.186 104.99 222.186 105.73ZM227.182 112.19C226.656 112.157 226.142 112.05 225.642 111.87C225.142 111.69 224.702 111.447 224.322 111.14C223.949 110.827 223.669 110.46 223.482 110.04L225.252 109.28C225.339 109.46 225.489 109.637 225.702 109.81C225.922 109.983 226.179 110.127 226.472 110.24C226.766 110.347 227.072 110.4 227.392 110.4C227.706 110.4 227.996 110.357 228.262 110.27C228.536 110.177 228.759 110.037 228.932 109.85C229.106 109.663 229.192 109.44 229.192 109.18C229.192 108.887 229.092 108.66 228.892 108.5C228.699 108.333 228.456 108.207 228.162 108.12C227.869 108.033 227.576 107.95 227.282 107.87C226.629 107.723 226.029 107.523 225.482 107.27C224.942 107.01 224.512 106.68 224.192 106.28C223.872 105.873 223.712 105.377 223.712 104.79C223.712 104.15 223.886 103.597 224.232 103.13C224.579 102.657 225.032 102.293 225.592 102.04C226.159 101.787 226.762 101.66 227.402 101.66C228.202 101.66 228.936 101.83 229.602 102.17C230.269 102.51 230.779 102.977 231.132 103.57L229.482 104.55C229.382 104.35 229.232 104.17 229.032 104.01C228.832 103.85 228.606 103.723 228.352 103.63C228.099 103.53 227.836 103.473 227.562 103.46C227.222 103.447 226.906 103.487 226.612 103.58C226.326 103.667 226.096 103.807 225.922 104C225.749 104.193 225.662 104.44 225.662 104.74C225.662 105.033 225.766 105.253 225.972 105.4C226.179 105.54 226.439 105.653 226.752 105.74C227.072 105.827 227.399 105.923 227.732 106.03C228.326 106.217 228.882 106.447 229.402 106.72C229.922 106.987 230.342 107.317 230.662 107.71C230.982 108.103 231.136 108.583 231.122 109.15C231.122 109.777 230.932 110.327 230.552 110.8C230.179 111.273 229.692 111.633 229.092 111.88C228.492 112.127 227.856 112.23 227.182 112.19Z" fill="white"/>
<path d="M143.712 55.5177C139.236 55.5093 135.407 54.737 131.772 53.079C129.449 52.0198 127.401 50.5829 125.625 48.757C124.53 47.6307 124.229 46.2609 124.631 44.8464C125.018 43.4836 126.112 42.6385 127.511 42.3209C128.766 42.0355 129.977 42.132 130.936 43.1534C133.207 45.5669 136.1 46.8066 139.304 47.425C142.398 48.0224 145.477 47.9455 148.51 47.0458C150.107 46.5715 151.563 45.8482 152.75 44.6449C153.999 43.3786 154.525 41.8438 154.597 40.1144C154.688 37.9303 153.679 36.3577 151.832 35.2621C150.048 34.2044 148.081 33.5832 146.109 32.9899C143.162 32.1028 140.146 31.4578 137.209 30.5358C134.688 29.7439 132.242 28.8008 130.052 27.2995C126.828 25.0889 124.752 22.1297 124.249 18.247C123.585 13.1289 124.771 8.56625 128.725 4.95503C131.276 2.62543 134.336 1.28224 137.708 0.585464C139.644 0.185306 141.603 0.00761295 143.581 0.0313986C145.239 0.0523859 146.816 1.25146 147.269 2.81572C147.756 4.49471 147.14 6.17649 145.694 7.09993C145.075 7.4959 144.39 7.70997 143.654 7.69178C140.848 7.62042 138.164 8.16609 135.661 9.40295C133.886 10.2802 132.682 11.7297 132.164 13.6466C131.567 15.8586 131.682 17.9812 133.239 19.8351C134.085 20.8424 135.221 21.4553 136.398 21.9981C137.969 22.7243 139.613 23.249 141.268 23.7429C143.888 24.525 146.576 25.0511 149.186 25.8724C151.65 26.6489 154.079 27.494 156.268 28.8988C159.047 30.6827 161.108 33.0249 161.93 36.2583C163.386 41.9837 161.391 48.7794 155.255 52.4116C152.457 54.0682 149.426 55.0378 146.181 55.3638C145.198 55.4604 144.218 55.5275 143.712 55.5177Z" fill="white"/>
<path d="M114.665 18.2541C114.644 21.0986 114.218 23.8633 112.96 26.4559C111.578 29.306 109.405 31.4117 106.659 32.976C104.008 34.4857 101.132 35.4455 98.216 36.2892C95.5832 37.0503 92.9688 37.8591 90.5129 39.0819C87.0185 40.8211 84.9743 43.6222 84.3688 47.4475C84.1452 48.855 84.0519 50.2696 84.0476 51.6939C84.042 53.6513 82.4914 55.3457 80.5929 55.501C78.4779 55.6745 76.6699 54.3593 76.336 52.3417C76.186 51.4323 76.2836 50.5018 76.3317 49.5826C76.4492 47.3551 76.742 45.1543 77.4593 43.0303C79.0098 38.4411 81.9807 35.0188 86.2249 32.6402C88.695 31.255 91.3589 30.347 94.0497 29.5145C96.2439 28.8359 98.482 28.2944 100.594 27.3696C101.947 26.7777 103.262 26.1159 104.39 25.1561C105.69 24.0494 106.336 22.5747 106.632 20.9447C107.044 18.6724 107.031 16.4114 106.242 14.2063C105.384 11.8124 103.68 10.1488 101.402 9.1022C96.7603 6.96989 92.2247 7.21894 87.9353 10.0284C85.5628 11.5815 84.4381 13.9139 84.1212 16.6674C84.0349 17.4146 84.1113 18.1687 83.9783 18.9117C83.6402 20.788 81.8619 22.1158 79.8431 21.9926C77.9686 21.8793 76.3431 20.2997 76.2992 18.4458C76.2143 14.9325 76.8665 11.5815 78.8188 8.57472C81.2833 4.77881 84.7776 2.3121 89.1137 1.02767C95.3031 -0.80522 101.234 -0.140621 106.709 3.28032C111.196 6.08422 113.86 10.1474 114.498 15.418C114.613 16.3582 114.665 17.3055 114.665 18.2541Z" fill="white"/>
<path d="M42.1921 13.0627C41.2386 15.1069 40.3091 17.0993 39.381 19.0916C37.2858 23.5913 35.1906 28.0924 33.0955 32.5921C32.0104 34.9217 30.8857 37.2345 29.8444 39.5823C28.4707 42.68 24.941 42.5569 23.1825 40.5869C22.1017 39.3766 22.031 37.9607 22.6902 36.5265C24.0653 33.5365 25.473 30.5605 26.8679 27.5789C30.7909 19.1854 34.7068 10.7905 38.6383 2.40111C39.9172 -0.32724 42.5698 -0.373412 44.1359 0.513653C44.9621 0.98237 45.511 1.70433 45.9043 2.54663C47.2454 5.41909 48.5781 8.29716 49.9249 11.1668C55.0886 22.1698 60.258 33.1714 65.4246 44.1729C66.3088 46.0562 67.1915 47.9395 68.0729 49.8241C68.8241 51.4276 68.5242 53.3108 67.3415 54.4315C65.6934 55.993 63.0945 55.8475 61.6289 54.1181C61.2752 53.6998 61.0121 53.2339 60.7815 52.7414C57.3211 45.3482 53.8536 37.9565 50.3889 30.5647C47.7222 24.8716 45.0583 19.1784 42.3944 13.4852C42.3378 13.3677 42.2812 13.2502 42.1921 13.0627Z" fill="white"/>
<path d="M192.465 41.4015C192.855 40.4542 193.212 39.5937 193.567 38.7305C196.63 31.2828 199.693 23.835 202.757 16.3873C204.685 11.7002 206.609 7.0116 208.55 2.33003C209.219 0.716799 210.45 -0.0233545 212.265 0.0284142C213.729 0.0703889 215.303 1.17152 215.778 2.50072C216.127 3.47593 216.048 4.43436 215.656 5.38718C213.326 11.0636 211.002 16.7413 208.677 22.4191C205.012 31.3751 201.349 40.3311 197.682 49.2871C197.181 50.51 196.696 51.7398 196.161 52.9473C195.12 55.3021 192.95 56.0296 190.924 55.1887C189.874 54.7522 189.219 53.9001 188.801 52.8815C185.862 45.7206 182.934 38.5542 180.001 31.3905C178.441 27.5764 176.879 23.7637 175.313 19.9524C174.795 18.6918 174.709 17.4423 175.443 16.2376C176.272 14.8777 177.547 14.2984 179.117 14.3754C180.769 14.4551 181.811 15.4065 182.408 16.8589C185.216 23.6895 188.008 30.5272 190.807 37.3621C191.349 38.6801 191.889 39.9939 192.465 41.4015Z" fill="white"/>
<path d="M154.023 9.34687C154.023 7.19777 155.723 5.51458 157.894 5.51318C160.124 5.51179 161.83 7.18518 161.827 9.36926C161.824 11.51 160.083 13.2001 157.89 13.1904C155.728 13.1834 154.023 11.4862 154.023 9.34687Z" fill="white"/>
<path d="M176.812 3.90789C176.812 6.0444 175.096 7.73878 172.934 7.73878C170.733 7.73878 169.011 6.05839 169.01 3.90789C169.008 1.7308 170.726 0.0560143 172.953 0.0630101C175.116 0.0686067 176.813 1.76019 176.812 3.90789Z" fill="white"/>
<path d="M110.746 55.509C108.599 55.509 106.861 53.7839 106.877 51.6642C106.893 49.5039 108.63 47.7815 110.78 47.7955C112.956 47.8095 114.669 49.5207 114.668 51.6796C114.666 53.8301 112.945 55.5104 110.746 55.509Z" fill="white"/>
<path d="M23.7597 51.5869C23.7597 53.7094 22.0309 55.4164 19.882 55.4206C17.7274 55.4234 15.9986 53.6983 16 51.5478C16.0014 49.4224 17.7316 47.7169 19.882 47.7183C22.0536 47.7197 23.7611 49.4238 23.7597 51.5869Z" fill="white"/>
</svg>
