<svg width="21" height="19" viewBox="0 0 21 19" fill="none" xmlns="http://www.w3.org/2000/svg">
<path d="M3.00027 10.6803V13.4903C3.00027 14.2203 3.40027 14.9003 4.04027 15.2503L9.04027 17.9803C9.64027 18.3103 10.3603 18.3103 10.9603 17.9803L15.9603 15.2503C16.6003 14.9003 17.0003 14.2203 17.0003 13.4903V10.6803L10.9603 13.9803C10.3603 14.3103 9.64027 14.3103 9.04027 13.9803L3.00027 10.6803ZM9.04027 1.02027L0.610273 5.62027C-0.0797266 6.00027 -0.0797266 7.00027 0.610273 7.38027L9.04027 11.9803C9.64027 12.3103 10.3603 12.3103 10.9603 11.9803L19.0003 7.59027V13.5003C19.0003 14.0503 19.4503 14.5003 20.0003 14.5003C20.5503 14.5003 21.0003 14.0503 21.0003 13.5003V7.09027C21.0003 6.72027 20.8003 6.39027 20.4803 6.21027L10.9603 1.02027C10.6648 0.862698 10.3351 0.780273 10.0003 0.780273C9.66543 0.780273 9.33573 0.862698 9.04027 1.02027Z" fill="#1A365D"/>
</svg>
