<svg width="24" height="18" viewBox="0 0 24 18" fill="none" xmlns="http://www.w3.org/2000/svg">
<path d="M4.5 4.5C4.89782 4.5 5.27936 4.65804 5.56066 4.93934C5.84196 5.22064 6 5.60218 6 6V16.5C6 16.8978 5.84196 17.2794 5.56066 17.5607C5.27936 17.842 4.89782 18 4.5 18H1.5C0.673 18 0 17.328 0 16.5V6C0 5.172 0.673 4.5 1.5 4.5H4.5ZM13.5 0C13.8978 0 14.2794 0.158035 14.5607 0.43934C14.842 0.720644 15 1.10218 15 1.5V16.5C15 16.8978 14.842 17.2794 14.5607 17.5607C14.2794 17.842 13.8978 18 13.5 18H10.5C9.673 18 9 17.328 9 16.5V1.5C9 0.672 9.673 0 10.5 0H13.5ZM22.5 7.5C22.8978 7.5 23.2794 7.65804 23.5607 7.93934C23.842 8.22064 24 8.60218 24 9V16.5C24 16.8978 23.842 17.2794 23.5607 17.5607C23.2794 17.842 22.8978 18 22.5 18H19.5C19.1022 18 18.7206 17.842 18.4393 17.5607C18.158 17.2794 18 16.8978 18 16.5V9C18 8.60218 18.158 8.22064 18.4393 7.93934C18.7206 7.65804 19.1022 7.5 19.5 7.5H22.5Z" fill="#1A365D"/>
</svg>
