<svg width="21" height="21" viewBox="0 0 21 21" fill="none" xmlns="http://www.w3.org/2000/svg">
<path d="M3.1543 18.0001H6.2793L15.496 8.78342L12.371 5.65842L3.1543 14.8751V18.0001ZM4.82096 15.5668L12.371 8.01675L13.1376 8.78342L5.58763 16.3334H4.82096V15.5668ZM15.9626 3.24175C15.8855 3.1645 15.794 3.10321 15.6932 3.06139C15.5923 3.01957 15.4843 2.99805 15.3751 2.99805C15.266 2.99805 15.1579 3.01957 15.0571 3.06139C14.9563 3.10321 14.8647 3.1645 14.7876 3.24175L13.2626 4.76675L16.3876 7.89175L17.9126 6.36675C17.9899 6.28966 18.0512 6.19808 18.093 6.09727C18.1348 5.99646 18.1563 5.88839 18.1563 5.77925C18.1563 5.67011 18.1348 5.56204 18.093 5.46123C18.0512 5.36042 17.9899 5.26885 17.9126 5.19175L15.9626 3.24175Z" fill="white"/>
</svg>
