<svg width="22" height="24" viewBox="0 0 22 24" fill="none" xmlns="http://www.w3.org/2000/svg">
<path d="M12.4835 0.00053718C12.3024 0.00654937 12.1242 0.0483449 11.9593 0.123516C11.7944 0.198687 11.6459 0.305748 11.5226 0.438532L6.11662 6.22646L2.26266 10.3524C1.70137 10.9501 1.28738 11.6705 1.05367 12.4564C1.00359 12.6252 0.961874 12.7964 0.928676 12.9694C0.778842 13.752 0.799991 14.5577 0.990676 15.3314C1.07543 15.6804 1.19226 16.0208 1.33967 16.3483C1.64538 17.0288 2.07656 17.6455 2.61066 18.1663L6.88761 22.3593L6.92661 22.3973C9.17458 24.5623 12.7785 24.5303 14.9895 22.3233L17.3855 19.9313C17.9255 19.3913 17.9255 18.5173 17.3885 17.9763C17.2607 17.8478 17.1088 17.7458 16.9415 17.6761C16.7742 17.6064 16.5948 17.5704 16.4136 17.5701C16.2324 17.5698 16.0529 17.6053 15.8854 17.6745C15.7179 17.7437 15.5657 17.8452 15.4375 17.9733L13.0415 20.3653C12.4829 20.9166 11.7316 21.2289 10.9468 21.236C10.1619 21.2431 9.40509 20.9445 8.83659 20.4033L8.81659 20.3843L4.54063 16.1913C3.88864 15.5514 3.56865 14.7224 3.59265 13.9284C3.59741 13.7523 3.61951 13.5771 3.65865 13.4054C3.75916 12.9698 3.97265 12.5683 4.27764 12.2414L8.13059 8.11444C9.18858 6.98046 11.3346 6.84446 12.5605 7.83645L16.0615 10.6674C16.6545 11.1474 17.5225 11.0544 18.0015 10.4604C18.2311 10.1751 18.3382 9.81035 18.2994 9.44616C18.2606 9.08197 18.0791 8.748 17.7945 8.51744L14.2945 5.68647C13.4945 5.03948 12.5285 4.64148 11.5206 4.48449L13.5355 2.32651C13.7213 2.12679 13.8439 1.87665 13.8879 1.60749C13.932 1.33833 13.8955 1.06216 13.7831 0.813658C13.6707 0.565154 13.4874 0.355398 13.2562 0.210732C13.025 0.0660664 12.7562 -0.00705978 12.4835 0.00053718ZM9.61758 12.8154C9.43619 12.8154 9.25657 12.8511 9.08902 12.9206C8.92146 12.9901 8.76924 13.0919 8.64107 13.2203C8.5129 13.3486 8.4113 13.501 8.34206 13.6687C8.27283 13.8363 8.23733 14.016 8.23759 14.1974C8.23733 14.3788 8.27283 14.5584 8.34206 14.7261C8.4113 14.8937 8.5129 15.0461 8.64107 15.1745C8.76924 15.3028 8.92146 15.4046 9.08902 15.4741C9.25657 15.5436 9.43619 15.5794 9.61758 15.5794H19.7905C19.9719 15.5794 20.1515 15.5436 20.319 15.4741C20.4866 15.4046 20.6388 15.3028 20.767 15.1745C20.8951 15.0461 20.9967 14.8937 21.066 14.7261C21.1352 14.5584 21.1707 14.3788 21.1704 14.1974C21.1707 14.016 21.1352 13.8363 21.066 13.6687C20.9967 13.501 20.8951 13.3486 20.767 13.2203C20.6388 13.0919 20.4866 12.9901 20.319 12.9206C20.1515 12.8511 19.9719 12.8154 19.7905 12.8154H9.61758Z" fill="#1A365D"/>
</svg>
